%FSLAX25Y25*%
%MOIN*%
G70*
G01*
G75*
G04 Layer_Color=8421504*
%ADD10R,0.04724X0.02638*%
%ADD11R,0.01969X0.01969*%
%ADD12C,0.02362*%
%ADD13C,0.02500*%
%ADD14C,0.00787*%
%ADD15C,0.08000*%
%ADD16C,0.18000*%
%ADD17C,0.01969*%
%ADD18C,0.02953*%
%ADD19C,0.00800*%
%ADD20C,0.01200*%
%ADD21C,0.01000*%
%ADD22C,0.01500*%
%ADD23C,0.00394*%
%ADD24R,0.03937X0.01850*%
G36*
X23669Y-11713D02*
X22882Y-12500D01*
X21701Y-13681D01*
X20815Y-12795D01*
X22783Y-10827D01*
X23669Y-11713D01*
D02*
G37*
G36*
X33610Y-11614D02*
X34791Y-12795D01*
X33906Y-13681D01*
X31937Y-11713D01*
X32823Y-10827D01*
X33610Y-11614D01*
D02*
G37*
G36*
X24654Y3720D02*
X26110D01*
X26073Y3327D01*
X26220Y2589D01*
X26638Y1964D01*
X27263Y1547D01*
X28000Y1400D01*
X28737Y1547D01*
X29362Y1964D01*
X29780Y2589D01*
X29927Y3327D01*
X29890D01*
Y3720D01*
X31346D01*
X32429Y4803D01*
X33758Y6132D01*
X35136Y4754D01*
X32724Y2342D01*
Y-1791D01*
X29890D01*
X29927Y-1398D01*
X29780Y-660D01*
X29362Y-35D01*
X28737Y383D01*
X28000Y529D01*
X27263Y383D01*
X26638Y-35D01*
X26220Y-660D01*
X26073Y-1398D01*
X26110D01*
Y-1791D01*
X23276D01*
Y2342D01*
X22193Y3425D01*
X20864Y4754D01*
X22242Y6132D01*
X24654Y3720D01*
D02*
G37*
D11*
X30953Y984D02*
D03*
D23*
X29890Y-1398D02*
G03*
X26110Y-1398I-1890J0D01*
G01*
Y3327D02*
G03*
X29890Y3327I1890J0D01*
G01*
X22193Y3425D02*
X23374Y2244D01*
X20864Y4754D02*
X22193Y3425D01*
X22242Y6132D02*
X24752Y3622D01*
X20864Y4754D02*
X22242Y6132D01*
X23374Y2244D02*
X24752Y3622D01*
X31248D02*
X32626Y2244D01*
X33758Y6132D02*
X35136Y4754D01*
X32626Y2244D02*
X35136Y4754D01*
X32429Y4803D02*
X33758Y6132D01*
X31248Y3622D02*
X32429Y4803D01*
X26110Y-1791D02*
Y-1398D01*
X29890Y-1791D02*
Y-1398D01*
Y3327D02*
Y3720D01*
X26110Y3327D02*
Y3720D01*
X29890D02*
X32724D01*
Y-1791D02*
Y3720D01*
X29890Y-1791D02*
X32724D01*
X23276D02*
X26110D01*
X23276D02*
Y3720D01*
X26110D01*
D24*
X30953Y-10925D02*
D03*
X24654D02*
D03*
M02*
