M48
;Layer_Color=9474304
;FILE_FORMAT=2:4
INCH
;TYPE=PLATED
T1F00S00C0.0098
T2F00S00C0.0197
T3F00S00C0.0390
T4F00S00C0.0890
%
T01
X002800Y-000039
Y000441
T02
X001631Y-000618
Y-000264
X001678Y000091
X001572Y000445
X001831Y000665
X001713Y001012
X002076Y000941
X002446Y000846
X002800Y000748
X003154Y000846
X003524Y000941
X003887Y001012
X003769Y000665
X004028Y000445
X003922Y000091
X003969Y-000264
Y-000618
X003607Y-000441
Y-000087
Y000268
X003312Y-000382
X002969
X002631
X002288
X001993Y-000441
Y-000087
Y000268
X002265Y001260
X002623Y001161
X002977
X003335Y001260
T03
X002300Y-002300
X003300
T04
X000200Y000000
X005400
M30
