%FSLAX25Y25*%
%MOIN*%
G70*
G01*
G75*
G04 Layer_Color=8388736*
%ADD10R,0.04724X0.02638*%
%ADD11R,0.01969X0.01969*%
%ADD12C,0.02362*%
%ADD13C,0.02500*%
%ADD14C,0.00787*%
%ADD15C,0.08000*%
%ADD16C,0.18000*%
%ADD17C,0.01969*%
%ADD18C,0.02953*%
%ADD19C,0.00800*%
%ADD20C,0.01200*%
%ADD21C,0.01000*%
%ADD22C,0.01500*%
%ADD23C,0.00394*%
%ADD24R,0.03937X0.01850*%
%ADD25C,0.08800*%
%ADD26C,0.18800*%
G36*
X24161Y-11732D02*
X22980Y-12913D01*
X21652Y-14242D01*
X20274Y-12864D01*
X22783Y-10354D01*
X24161Y-11732D01*
D02*
G37*
G36*
X34004Y-11535D02*
X35333Y-12864D01*
X33955Y-14242D01*
X31445Y-11732D01*
X32823Y-10354D01*
X34004Y-11535D01*
D02*
G37*
G36*
X24422Y3952D02*
X29870Y3938D01*
Y3955D01*
X29890Y3947D01*
X29909Y3955D01*
X31571Y3945D01*
X32429Y4803D01*
X33758Y6132D01*
X35136Y4754D01*
X32936Y2554D01*
X32923Y-1969D01*
X32939D01*
X32876Y-2120D01*
X32724Y-2183D01*
X23276Y-2167D01*
Y-2183D01*
X23124Y-2120D01*
X23061Y-1969D01*
X23074Y2544D01*
X22193Y3425D01*
X20864Y4754D01*
X22242Y6132D01*
X24422Y3952D01*
D02*
G37*
%LPC*%
G36*
X29890Y3947D02*
X29889Y3946D01*
X29891D01*
X29890Y3947D01*
D02*
G37*
%LPD*%
D10*
X30953Y-10925D02*
D03*
X24654D02*
D03*
D11*
X30953Y984D02*
D03*
D23*
X23276Y3740D02*
X26091D01*
X23276Y-1969D02*
Y3740D01*
Y-1969D02*
X26110D01*
X29890D02*
X32724D01*
Y3740D01*
X29909D02*
X32724D01*
X31248Y3622D02*
X32429Y4803D01*
X33758Y6132D01*
X32626Y2244D02*
X35136Y4754D01*
X33758Y6132D02*
X35136Y4754D01*
X31248Y3622D02*
X32626Y2244D01*
X23374Y2244D02*
X24752Y3622D01*
X20864Y4754D02*
X22242Y6132D01*
X24752Y3622D01*
X20864Y4754D02*
X22193Y3425D01*
X23374Y2244D01*
X22783Y-10354D02*
X24161Y-11732D01*
X20274Y-12864D02*
X21652Y-14242D01*
X20274Y-12864D02*
X22783Y-10354D01*
X21652Y-14242D02*
X22980Y-12913D01*
X24161Y-11732D01*
X31445Y-11732D02*
X32823Y-10354D01*
X33955Y-14242D02*
X35333Y-12864D01*
X31445Y-11732D02*
X33955Y-14242D01*
X34004Y-11535D02*
X35333Y-12864D01*
X32823Y-10354D02*
X34004Y-11535D01*
X26032Y-1969D02*
X29969D01*
X26032Y3740D02*
X29870D01*
X29890Y3720D02*
X29909Y3740D01*
X26091D02*
X26110Y3720D01*
D25*
X33000Y-23000D02*
D03*
X23000D02*
D03*
D26*
X2000Y0D02*
D03*
X54000D02*
D03*
M02*
