%FSLAX25Y25*%
%MOIN*%
G70*
G01*
G75*
G04 Layer_Color=8388736*
%ADD10R,0.08600X0.06000*%
%ADD11R,0.07087X0.05118*%
%ADD12R,0.02165X0.04134*%
%ADD13R,0.05118X0.07087*%
%ADD14R,0.31496X0.08661*%
%ADD15R,0.05315X0.04724*%
%ADD16C,0.03000*%
%ADD17C,0.06000*%
%ADD18C,0.02000*%
%ADD19C,0.01500*%
%ADD20C,0.01000*%
%ADD21C,0.10000*%
%ADD22C,0.07874*%
%ADD23R,0.07874X0.07874*%
%ADD24C,0.25000*%
%ADD25C,0.02700*%
%ADD26C,0.15000*%
%ADD27C,0.00800*%
%ADD28C,0.00984*%
%ADD29C,0.00700*%
%ADD30C,0.01200*%
%ADD31C,0.00787*%
%ADD32C,0.00500*%
%ADD33R,0.09400X0.06800*%
%ADD34R,0.07687X0.05718*%
%ADD35R,0.02965X0.04934*%
%ADD36R,0.05718X0.07687*%
%ADD37R,0.32296X0.09461*%
%ADD38R,0.05915X0.05324*%
%ADD39C,0.08674*%
%ADD40R,0.08674X0.08674*%
%ADD41C,0.25800*%
D33*
X978000Y690000D02*
D03*
Y674000D02*
D03*
X938000Y690000D02*
D03*
Y674000D02*
D03*
X898000Y690000D02*
D03*
Y674000D02*
D03*
D34*
X885000Y679709D02*
D03*
Y668291D02*
D03*
X914000Y706000D02*
D03*
Y694583D02*
D03*
X954000Y706000D02*
D03*
Y694583D02*
D03*
X994000Y706000D02*
D03*
Y694583D02*
D03*
D35*
X912260Y675965D02*
D03*
X916000D02*
D03*
X919740D02*
D03*
Y684035D02*
D03*
X912260D02*
D03*
X952260Y675965D02*
D03*
X956000D02*
D03*
X959740D02*
D03*
Y684035D02*
D03*
X952260D02*
D03*
X992260Y675965D02*
D03*
X996000D02*
D03*
X999740D02*
D03*
Y684035D02*
D03*
X992260D02*
D03*
D36*
X893291Y700000D02*
D03*
X904709D02*
D03*
X933291D02*
D03*
X944709D02*
D03*
X973291D02*
D03*
X984709D02*
D03*
D37*
X906000Y640779D02*
D03*
Y663221D02*
D03*
X946000Y640779D02*
D03*
Y663221D02*
D03*
X986000Y640779D02*
D03*
Y663221D02*
D03*
D38*
X924000Y694551D02*
D03*
Y702032D02*
D03*
X964000Y694551D02*
D03*
Y702032D02*
D03*
X1004000Y694551D02*
D03*
Y702032D02*
D03*
D39*
X1024000Y643000D02*
D03*
Y653000D02*
D03*
Y663000D02*
D03*
Y673000D02*
D03*
Y683000D02*
D03*
X876000Y678000D02*
D03*
Y668000D02*
D03*
D40*
X1024000Y693000D02*
D03*
X876000Y658000D02*
D03*
D41*
X875000Y705000D02*
D03*
Y630000D02*
D03*
M02*
