M48
;Layer_Color=9474304
;FILE_FORMAT=2:4
INCH
;TYPE=PLATED
T1F00S00C0.0130
T2F00S00C0.0394
T3F00S00C0.1160
%
T01
X090000Y063000
X091000
X092630Y064750
Y065410
X092090Y067000
X091700Y067150
X091500Y068950
X090800
X094800
X095500
X095700Y067100
X096075
X096600Y065750
Y064750
X099804Y067093
X100200Y067100
X099500Y068950
X098800
T02
X087600Y065800
Y066800
Y067800
X102400Y067300
Y066300
Y065300
Y064300
Y068300
Y069300
T03
X087500Y063000
Y070500
M30
