%FSLAX25Y25*%
%MOIN*%
G70*
G01*
G75*
G04 Layer_Color=65535*
%ADD10R,0.08600X0.06000*%
%ADD11R,0.07087X0.05118*%
%ADD12R,0.02165X0.04134*%
%ADD13R,0.05118X0.07087*%
%ADD14R,0.31496X0.08661*%
%ADD15R,0.05315X0.04724*%
%ADD16C,0.03000*%
%ADD17C,0.06000*%
%ADD18C,0.02000*%
%ADD19C,0.01500*%
%ADD20C,0.01000*%
%ADD21C,0.10000*%
%ADD22C,0.07874*%
%ADD23R,0.07874X0.07874*%
%ADD24C,0.25000*%
%ADD25C,0.02700*%
%ADD26C,0.15000*%
%ADD27C,0.00800*%
%ADD28C,0.00984*%
%ADD29C,0.00700*%
%ADD30C,0.01200*%
%ADD31C,0.00787*%
%ADD32C,0.00500*%
D27*
X1015000Y693666D02*
Y692334D01*
Y693000D01*
X1018999D01*
X1018332Y693666D01*
X1018999Y641667D02*
X1018332Y643000D01*
X1016999Y644333D01*
X1015666D01*
X1015000Y643666D01*
Y642334D01*
X1015666Y641667D01*
X1016333D01*
X1016999Y642334D01*
Y644333D01*
X886000Y658500D02*
Y659833D01*
Y659166D01*
X882001D01*
X882668Y658500D01*
D28*
X909504Y675965D02*
G03*
X909504Y675965I-492J0D01*
G01*
X949504D02*
G03*
X949504Y675965I-492J0D01*
G01*
X989504D02*
G03*
X989504Y675965I-492J0D01*
G01*
D29*
X983500Y691000D02*
X986000D01*
Y673000D02*
Y691000D01*
X983500Y673000D02*
X986000D01*
X970000Y691000D02*
X972500D01*
X970000Y673000D02*
Y691000D01*
Y673000D02*
X972500D01*
X943500Y691000D02*
X946000D01*
Y673000D02*
Y691000D01*
X943500Y673000D02*
X946000D01*
X930000Y691000D02*
X932500D01*
X930000Y673000D02*
Y691000D01*
Y673000D02*
X932500D01*
X903500Y691000D02*
X906000D01*
Y673000D02*
Y691000D01*
X903500Y673000D02*
X906000D01*
X890000Y691000D02*
X892500D01*
X890000Y673000D02*
Y691000D01*
Y673000D02*
X892500D01*
D30*
X971500Y685000D02*
X984500D01*
X931500D02*
X944500D01*
X891500D02*
X904500D01*
D31*
X888500Y672000D02*
Y676000D01*
X881500Y672000D02*
Y676000D01*
X910095Y679606D02*
Y680394D01*
X921906Y679606D02*
Y680394D01*
X910095Y679606D02*
X921906D01*
X910095Y680394D02*
X921906D01*
X897000Y703500D02*
X901000D01*
X897000Y696500D02*
X901000D01*
X917500Y698291D02*
Y702291D01*
X910500Y698291D02*
Y702291D01*
X950095Y679606D02*
Y680394D01*
X961905Y679606D02*
Y680394D01*
X950095Y679606D02*
X961905D01*
X950095Y680394D02*
X961905D01*
X937000Y703500D02*
X941000D01*
X937000Y696500D02*
X941000D01*
X957500Y698291D02*
Y702291D01*
X950500Y698291D02*
Y702291D01*
X990094Y679606D02*
Y680394D01*
X1001906Y679606D02*
Y680394D01*
X990094Y679606D02*
X1001906D01*
X990094Y680394D02*
X1001906D01*
X977000Y703500D02*
X981000D01*
X977000Y696500D02*
X981000D01*
X997500Y698291D02*
Y702291D01*
X990500Y698291D02*
Y702291D01*
D32*
X920654Y694650D02*
Y701933D01*
X927347Y694650D02*
Y701933D01*
X960653Y694650D02*
Y701933D01*
X967346Y694650D02*
Y701933D01*
X1000653Y694650D02*
Y701933D01*
X1007347Y694650D02*
Y701933D01*
M02*
