%FSLAX25Y25*%
%MOIN*%
G70*
G01*
G75*
G04 Layer_Color=32896*
%ADD10R,0.08600X0.06000*%
%ADD11R,0.07087X0.05118*%
%ADD12R,0.02165X0.04134*%
%ADD13R,0.05118X0.07087*%
%ADD14R,0.31496X0.08661*%
%ADD15R,0.05315X0.04724*%
%ADD16C,0.03000*%
%ADD17C,0.06000*%
%ADD18C,0.02000*%
%ADD19C,0.01500*%
%ADD20C,0.01000*%
%ADD21C,0.10000*%
%ADD22C,0.07874*%
%ADD23R,0.07874X0.07874*%
%ADD24C,0.25000*%
%ADD25C,0.02700*%
%ADD26C,0.15000*%
%ADD27C,0.00800*%
%ADD28C,0.00984*%
%ADD29C,0.00700*%
%ADD30C,0.01200*%
%ADD31C,0.00787*%
%ADD32C,0.00500*%
%ADD33R,0.09400X0.06800*%
%ADD34R,0.07687X0.05718*%
%ADD35R,0.02965X0.04934*%
%ADD36R,0.05718X0.07687*%
%ADD37R,0.32296X0.09461*%
%ADD38R,0.05915X0.05324*%
%ADD39C,0.08674*%
%ADD40R,0.08674X0.08674*%
%ADD41C,0.25800*%
D20*
X995000Y701664D02*
X993667Y702997D01*
X991001D01*
X989668Y701664D01*
Y700332D01*
X991001Y698999D01*
X992334D01*
X991001D01*
X989668Y697666D01*
Y696333D01*
X991001Y695000D01*
X993667D01*
X995000Y696333D01*
X987003Y698999D02*
X981671D01*
X979005Y702997D02*
Y695000D01*
X973674D01*
X965676Y702997D02*
X971008D01*
Y695000D01*
X965676D01*
X971008Y698999D02*
X968342D01*
X963010Y702997D02*
Y695000D01*
X959012D01*
X957679Y696333D01*
Y701664D01*
X959012Y702997D01*
X963010D01*
X947015D02*
Y695000D01*
X943017D01*
X941684Y696333D01*
Y701664D01*
X943017Y702997D01*
X947015D01*
X939018Y695000D02*
Y702997D01*
X935019D01*
X933687Y701664D01*
Y698999D01*
X935019Y697666D01*
X939018D01*
X936352D02*
X933687Y695000D01*
X931021Y702997D02*
X928355D01*
X929688D01*
Y695000D01*
X931021D01*
X928355D01*
X924356Y702997D02*
Y697666D01*
X921690Y695000D01*
X919025Y697666D01*
Y702997D01*
X911027D02*
X916359D01*
Y695000D01*
X911027D01*
X916359Y698999D02*
X913693D01*
X908361Y695000D02*
Y702997D01*
X904363D01*
X903030Y701664D01*
Y698999D01*
X904363Y697666D01*
X908361D01*
X905696D02*
X903030Y695000D01*
M02*
