M48
;Layer_Color=9474304
;FILE_FORMAT=2:5
INCH,LZ
;TYPE=PLATED
T1F00S00C0.00984
T2F00S00C0.01968
T3F00S00C0.03900
T4F00S00C0.08900
%
T01
X0028Y-0000394
Y0004409
T02
X0016307Y-0006181
Y-0002638
X001678Y0000905
X0015717Y0004449
X0018315Y0006654
X0017134Y0010118
X0020756Y0009409
X0024457Y0008465
X0028Y000748
X0031543Y0008465
X0035244Y0009409
X0038866Y0010118
X0037685Y0006654
X0040284Y0004449
X003922Y0000905
X0039693Y-0002638
Y-0006181
X0036071Y-0004409
Y-0000866
Y0002677
X0033118Y-0003819
X0029693
X0026307
X0022882
X0019929Y-0004409
Y-0000866
Y0002677
X0022646Y0012598
X0026228Y0011614
X0029772
X0033354Y0012598
T03
X0023Y-0023
X0033
T04
X0002Y0
X0054
M30
